<!DOCTYPE svg PUBLIC "-//W3C//DTD SVG 1.1//EN" "http://www.w3.org/Graphics/SVG/1.1/DTD/svg11.dtd">
<!-- Uploaded to: SVG Repo, www.svgrepo.com, Transformed by: SVG Repo Mixer Tools -->
<svg height="64px" width="64px" version="1.1" id="Layer_1" xmlns="http://www.w3.org/2000/svg" xmlns:xlink="http://www.w3.org/1999/xlink" viewBox="0 0 392.663 392.663" xml:space="preserve" fill="#000000" stroke="#000000" transform="matrix(1, 0, 0, 1, 0, 0)rotate(0)">
<g id="SVGRepo_bgCarrier" stroke-width="0"/>
<g id="SVGRepo_tracerCarrier" stroke-linecap="round" stroke-linejoin="round"/>
<g id="SVGRepo_iconCarrier"> <g> <path style="fill:#FFFFFF;" d="M63.289,307.329c2.327-4.331,3.491-9.115,3.491-14.093c0-16.743-13.576-30.384-30.384-30.384 c-5.107,0-10.02,1.228-14.545,3.685v29.931c0,6.012,4.848,10.925,10.925,10.925h30.513V307.329z"/> <path style="fill:#FFFFFF;" d="M359.887,21.786H32.776c-6.012,0-10.925,4.848-10.925,10.925v16.485h51.588 c6.012,0,10.925,4.848,10.925,10.925c0,6.012-4.848,10.99-10.925,10.99H21.851v28.897h18.877c6.012,0,10.925,4.848,10.925,10.925 c0,6.012-4.848,10.925-10.925,10.925H21.851v47.127h39.111c6.012,0,10.925,4.848,10.925,10.925v17.002 c2.392,0.84,4.719,1.875,7.046,2.844l11.96-11.96c4.267-4.267,11.119-4.267,15.451,0l35.297,35.362 c4.267,4.267,4.267,11.119,0,15.451l-11.96,11.895c1.099,2.327,2.004,4.655,2.844,7.046h17.002c6.012,0,10.925,4.848,10.925,10.925 v39.111h199.434c6.012,0,10.925-4.849,10.925-10.925V32.711C370.812,26.699,365.899,21.786,359.887,21.786z"/> </g> <g> <path style="fill:#FFC10D;" d="M88.566,293.236c0,4.848-0.711,9.568-2.004,14.093h51.976v-28.186h-13.964 c-4.848,0-9.18-3.232-10.537-7.952c-1.745-6.271-4.267-12.218-7.24-17.713c-2.392-4.267-1.616-9.568,1.745-13.059l9.891-9.891 l-19.911-19.911l-9.891,9.891c-3.491,3.491-8.792,4.202-13.059,1.745c-5.495-3.103-11.442-5.495-17.648-7.24 c-4.719-1.293-7.952-5.624-7.952-10.537v-14.028H21.851v52.493c4.655-1.293,9.503-2.069,14.545-2.069 C65.099,241.002,88.566,264.404,88.566,293.236z"/> <polygon style="fill:#FFC10D;" points="127.483,329.115 110.416,370.747 282.246,370.747 265.18,329.115 "/> </g> <path style="fill:#194F82;" d="M359.887,0H32.776C14.739,0,0.065,14.675,0.065,32.711v263.758c0,18.036,14.675,32.711,32.711,32.711 h71.111L86.82,370.747H67.814c-6.012,0-10.925,4.849-10.925,10.925c0,6.012,4.848,10.99,10.925,10.99h257.164 c6.012,0,10.925-4.849,10.925-10.925c0-6.012-4.848-10.925-10.925-10.925h-19.071l-17.131-41.632h71.111 c18.036,0,32.711-14.675,32.711-32.711V32.711C392.598,14.675,377.923,0,359.887,0z M370.812,296.404 c0,6.012-4.848,10.925-10.925,10.925H160.388v-39.111c0-6.012-4.848-10.925-10.925-10.925h-17.002 c-0.84-2.392-1.875-4.719-2.844-7.046l11.96-11.96c4.267-4.267,4.267-11.119,0-15.451l-35.297-35.362 c-4.267-4.267-11.119-4.267-15.451,0l-11.96,12.024c-2.327-1.099-4.655-2.004-7.046-2.844v-17.002 c0-6.012-4.848-10.925-10.925-10.925H21.851V121.6h18.877c6.012,0,10.925-4.848,10.925-10.925c0-6.012-4.848-10.925-10.925-10.925 H21.851V70.917h51.588c6.012,0,10.925-4.848,10.925-10.925s-4.848-10.99-10.925-10.99H21.851V32.711 c0-6.012,4.848-10.925,10.925-10.925h327.111c6.012,0,10.925,4.848,10.925,10.925v263.758l0,0V296.404z M110.416,370.747 l17.067-41.568H265.18l17.067,41.568H110.416z M21.851,296.404v-29.931c4.396-2.392,9.374-3.685,14.545-3.685 c16.743,0,30.384,13.576,30.384,30.384c0,4.978-1.228,9.762-3.491,14.093H32.776C26.764,307.329,21.851,302.416,21.851,296.404z M21.851,190.642h28.186v13.964c0,4.848,3.232,9.18,7.952,10.537c6.271,1.745,12.218,4.202,17.648,7.24 c4.267,2.392,9.568,1.616,13.059-1.745l9.891-9.891l19.911,19.911l-9.891,9.891c-3.491,3.491-4.202,8.792-1.745,13.059 c3.103,5.495,5.495,11.442,7.24,17.713c1.293,4.719,5.624,7.952,10.537,7.952h13.964v28.186H86.626 c1.293-4.59,2.004-9.244,2.004-14.093c0-28.832-23.402-52.234-52.234-52.234c-4.978,0-9.826,0.711-14.545,2.069L21.851,190.642 L21.851,190.642z"/> <path style="fill:#56ACE0;" d="M299.701,140.412c-1.422-4.784-3.232-9.438-5.624-13.576c-2.392-4.267-1.616-9.568,1.745-13.059 l6.335-6.335l-12.8-12.8l-6.335,6.335c-3.491,3.491-8.792,4.202-13.059,1.745c-4.267-2.392-8.792-4.267-13.576-5.624 c-4.719-1.293-7.952-5.624-7.952-10.537v-8.986h-18.101v8.986c0,4.848-3.232,9.18-7.952,10.537 c-4.784,1.422-9.438,3.232-13.576,5.624c-4.267,2.392-9.568,1.616-13.059-1.745l-6.335-6.335l-12.8,12.8l6.335,6.335 c3.491,3.491,4.202,8.792,1.745,13.059c-2.392,4.267-4.267,8.792-5.624,13.576c-1.293,4.719-5.624,7.952-10.537,7.952h-8.986v18.166 h8.986c4.848,0,9.18,3.232,10.537,7.952c1.293,4.784,3.232,9.438,5.624,13.576c2.392,4.267,1.616,9.568-1.745,13.059l-6.335,6.335 l12.8,12.8l6.335-6.335c3.491-3.491,8.792-4.202,13.059-1.745c4.267,2.457,8.792,4.267,13.576,5.624 c4.719,1.293,7.952,5.624,7.952,10.537v8.857h18.166v-8.986c0-4.848,3.232-9.18,7.952-10.537c4.784-1.422,9.438-3.232,13.576-5.624 c4.267-2.392,9.568-1.616,13.059,1.745l6.335,6.335l12.8-12.8l-6.335-6.335c-3.491-3.491-4.202-8.792-1.745-13.059 c2.457-4.267,4.267-8.792,5.624-13.576c1.293-4.719,5.624-7.952,10.537-7.952h8.857v-18.101h-8.986 C305.39,148.364,301.123,145.131,299.701,140.412z M239.386,201.309c-24.178,0-43.895-19.717-43.895-43.895 s19.717-43.895,43.895-43.895s43.895,19.717,43.895,43.895S263.628,201.309,239.386,201.309z"/> <path style="fill:#FFFFFF;" d="M239.386,135.305c-12.218,0-22.109,9.891-22.109,22.109c0,12.218,9.891,22.109,22.109,22.109 c12.218,0,22.109-9.891,22.109-22.109C261.495,145.196,251.604,135.305,239.386,135.305z"/> <g> <path style="fill:#194F82;" d="M330.15,126.513h-12.024c-0.388-1.034-0.776-1.939-1.228-2.909l8.469-8.469 c4.267-4.267,4.267-11.119,0-15.451l-28.251-28.251c-4.267-4.267-11.119-4.267-15.451,0l-8.469,8.469 c-0.905-0.388-1.939-0.84-2.909-1.228V66.78c0-6.012-4.848-10.925-10.925-10.925H219.41c-6.012,0-10.925,4.848-10.925,10.925 v12.024c-1.034,0.388-1.939,0.776-2.909,1.228l-8.533-8.533c-4.267-4.267-11.119-4.267-15.451,0l-28.186,28.186 c-4.267,4.267-4.267,11.119,0,15.451l8.469,8.469c-0.388,1.034-0.84,1.939-1.228,2.909h-12.024 c-6.012,0-10.925,4.848-10.925,10.925v39.952c0,6.012,4.848,10.925,10.925,10.925h12.024c0.388,1.034,0.776,1.939,1.228,2.909 l-8.469,8.469c-4.267,3.814-4.073,11.766,0,15.451l28.251,28.186c4.267,4.267,11.119,4.267,15.451,0l8.469-8.469 c0.905,0.388,1.939,0.84,2.909,1.228v12.024c0,6.012,4.848,10.925,10.925,10.925h39.952c6.012,0,10.925-4.848,10.925-10.925 v-12.024c1.034-0.388,1.939-0.776,2.909-1.228l8.469,8.469c4.267,4.267,11.119,4.267,15.451,0l28.251-28.251 c4.267-4.267,4.267-11.119,0-15.451l-8.469-8.469c0.388-1.034,0.84-1.939,1.228-2.909h12.024c6.012,0,10.925-4.848,10.925-10.925 v-39.952C341.075,131.362,336.097,126.513,330.15,126.513z M319.224,166.465h-8.986c-4.848,0-9.18,3.232-10.537,7.952 c-1.422,4.784-3.232,9.438-5.624,13.576c-2.392,4.267-1.616,9.568,1.745,13.059l6.335,6.335l-12.8,12.8l-6.335-6.335 c-3.491-3.491-8.792-4.202-13.059-1.745s-8.792,4.267-13.576,5.624c-4.719,1.293-7.952,5.624-7.952,10.537v8.986h-18.101v-8.986 c0-4.848-3.232-9.18-7.952-10.537c-4.784-1.422-9.438-3.232-13.576-5.624c-4.267-2.392-9.568-1.616-13.059,1.745l-6.335,6.335 l-12.8-12.8l6.335-6.335c3.491-3.491,4.202-8.792,1.745-13.059c-2.392-4.267-4.267-8.792-5.624-13.576 c-1.293-4.719-5.624-7.952-10.537-7.952h-8.986v-18.101h8.986c4.848,0,9.18-3.232,10.537-7.952 c1.422-4.784,3.232-9.438,5.624-13.576c2.392-4.267,1.616-9.568-1.745-13.059l-6.335-6.335l12.8-12.8l6.335,6.335 c3.491,3.491,8.792,4.202,13.059,1.745c4.267-2.392,8.792-4.267,13.576-5.624c4.719-1.293,7.952-5.624,7.952-10.537v-8.986h18.166 v8.986c0,4.848,3.232,9.18,7.952,10.537c4.784,1.422,9.438,3.232,13.576,5.624c4.267,2.392,9.568,1.616,13.059-1.745l6.335-6.335 l12.8,12.8l-6.335,6.335c-3.491,3.491-4.202,8.792-1.745,13.059c2.457,4.267,4.267,8.792,5.624,13.576 c1.293,4.719,5.624,7.952,10.537,7.952h8.857v18.101H319.224z"/> <path style="fill:#194F82;" d="M239.386,113.519c-24.178,0-43.895,19.717-43.895,43.895s19.717,43.895,43.895,43.895 s43.895-19.717,43.895-43.895S263.628,113.519,239.386,113.519z M239.386,179.523c-12.218,0-22.109-9.891-22.109-22.109 c0-12.218,9.891-22.109,22.109-22.109c12.218,0,22.109,9.891,22.109,22.109C261.495,169.632,251.604,179.523,239.386,179.523z"/> </g> </g>
</svg>