<?xml version="1.0" standalone="no"?>
<!DOCTYPE svg PUBLIC "-//W3C//DTD SVG 20010904//EN"
 "http://www.w3.org/TR/2001/REC-SVG-20010904/DTD/svg10.dtd">
<svg version="1.0" xmlns="http://www.w3.org/2000/svg"
 width="700.000000pt" height="700.000000pt" viewBox="0 0 700.000000 700.000000"
 preserveAspectRatio="xMidYMid meet">
<metadata>
Created by potrace 1.14, written by Peter Selinger 2001-2017
</metadata>
<g transform="translate(0.000000,700.000000) scale(0.100000,-0.100000)"
fill="#000000" stroke="none">
<path d="M405 6980 c-186 -59 -344 -226 -394 -415 -8 -28 -11 -802 -11 -2494
0 -2725 -6 -2509 67 -2641 52 -93 160 -196 253 -241 132 -64 111 -63 840 -65
366 -1 668 -3 672 -3 4 -1 1 -16 -7 -33 -8 -18 -38 -89 -66 -158 -28 -69 -57
-138 -64 -155 -7 -16 -36 -88 -65 -160 -29 -71 -61 -149 -71 -172 l-18 -43
-180 -1 c-100 -1 -184 -2 -188 -3 -100 -23 -166 -103 -165 -201 0 -73 34 -133
99 -177 27 -17 119 -18 2389 -18 2607 0 2392 -5 2450 62 68 82 67 186 -3 267
-50 59 -89 68 -297 69 -99 1 -183 5 -187 9 -4 4 -33 71 -64 148 -32 77 -63
154 -71 170 -7 17 -23 54 -34 84 -12 30 -29 73 -39 95 -31 71 -83 205 -82 212
1 4 301 8 668 9 514 1 680 4 718 14 197 52 368 214 426 404 18 60 19 143 19
2521 0 2420 0 2460 -20 2525 -55 186 -209 339 -399 395 -50 15 -326 16 -3085
15 -2952 0 -3033 -1 -3091 -19z"/>
</g>
</svg>
